HIERARCHY
ROOT Hips
{
  OFFSET 0 0.240689 0
  CHANNELS 6 Xposition Yposition Zposition Zrotation Xrotation Yrotation
  JOINT Bip01_Spine0
  {
    OFFSET 0 -24.7459 49.7988
    CHANNELS 6 Xposition Yposition Zposition Zrotation Xrotation Yrotation
    JOINT Bip01_Pelvis
    {
      OFFSET 0 0 0
      CHANNELS 6 Xposition Yposition Zposition Zrotation Xrotation Yrotation
      JOINT Bip01_Spine0_Tail
      {
        OFFSET -6.47486 -3.86022 0
        CHANNELS 6 Xposition Yposition Zposition Zrotation Xrotation Yrotation
        JOINT Bip01_Spine0_Tail1
        {
          OFFSET 10.3837 -0.00825882 0
          CHANNELS 6 Xposition Yposition Zposition Zrotation Xrotation Yrotation
          JOINT Bip01_Spine0_Tail2
          {
            OFFSET 10.3837 -0.00826263 0
            CHANNELS 6 Xposition Yposition Zposition Zrotation Xrotation Yrotation
            JOINT Bip01_Spine0_Tail3
            {
              OFFSET 10.3837 -0.00825882 0
              CHANNELS 6 Xposition Yposition Zposition Zrotation Xrotation Yrotation
              JOINT Bip01_Spine0_Tail4
              {
                OFFSET 10.3837 -0.00826263 0
                CHANNELS 6 Xposition Yposition Zposition Zrotation Xrotation Yrotation
                End Site
                {
                  OFFSET 0 0 0
                }
              }
            }
          }
        }
      }
      JOINT Bip01_R_Thigh
      {
        OFFSET 0 -1.52588e-005 -8.75617
        CHANNELS 6 Xposition Yposition Zposition Zrotation Xrotation Yrotation
        JOINT Bip01_R_Calf
        {
          OFFSET 19.7638 0 0
          CHANNELS 6 Xposition Yposition Zposition Zrotation Xrotation Yrotation
          JOINT Bip01_R_Foot
          {
            OFFSET 18.6534 0 0
            CHANNELS 6 Xposition Yposition Zposition Zrotation Xrotation Yrotation
            JOINT Bip01_R_Toe0
            {
              OFFSET 5.09145 13.9567 0
              CHANNELS 6 Xposition Yposition Zposition Zrotation Xrotation Yrotation
              JOINT Bip01_R_Toe01
              {
                OFFSET 4.28803 0 0
                CHANNELS 6 Xposition Yposition Zposition Zrotation Xrotation Yrotation
                JOINT Bip01_R_Toe02
                {
                  OFFSET 3.85801 0 0
                  CHANNELS 6 Xposition Yposition Zposition Zrotation Xrotation Yrotation
                  End Site
                  {
                    OFFSET 0 0 0
                  }
                }
              }
            }
          }
        }
      }
      JOINT Bip01_L_Thigh
      {
        OFFSET 0 1.52588e-005 8.75617
        CHANNELS 6 Xposition Yposition Zposition Zrotation Xrotation Yrotation
        JOINT Bip01_L_Calf
        {
          OFFSET 19.7638 0 0
          CHANNELS 6 Xposition Yposition Zposition Zrotation Xrotation Yrotation
          JOINT Bip01_L_Foot
          {
            OFFSET 18.6534 0 0
            CHANNELS 6 Xposition Yposition Zposition Zrotation Xrotation Yrotation
            JOINT Bip01_L_Toe0
            {
              OFFSET 5.09144 13.9567 0
              CHANNELS 6 Xposition Yposition Zposition Zrotation Xrotation Yrotation
              JOINT Bip01_L_Toe01
              {
                OFFSET 4.28802 0 0
                CHANNELS 6 Xposition Yposition Zposition Zrotation Xrotation Yrotation
                JOINT Bip01_L_Toe02
                {
                  OFFSET 3.85801 0 0
                  CHANNELS 6 Xposition Yposition Zposition Zrotation Xrotation Yrotation
                  End Site
                  {
                    OFFSET 0 0 0
                  }
                }
              }
            }
          }
        }
      }
      JOINT Bip01_Spine
      {
        OFFSET 9.14835 -0.00640869 -1.1e-005
        CHANNELS 6 Xposition Yposition Zposition Zrotation Xrotation Yrotation
        JOINT Bip01_Spine1
        {
          OFFSET 8.04366 -0.00638199 0
          CHANNELS 6 Xposition Yposition Zposition Zrotation Xrotation Yrotation
          JOINT Bip01_Spine2
          {
            OFFSET 8.04367 -0.00639343 0
            CHANNELS 6 Xposition Yposition Zposition Zrotation Xrotation Yrotation
            JOINT Bip01_Spine3
            {
              OFFSET 8.04304 -0.00831222 0
              CHANNELS 6 Xposition Yposition Zposition Zrotation Xrotation Yrotation
              JOINT Bip01_Neck
              {
                OFFSET 10.6685 1.06813 0
                CHANNELS 6 Xposition Yposition Zposition Zrotation Xrotation Yrotation
                JOINT Bip01_R_Clavicle
                {
                  OFFSET -3.21661 -4.89635 -9.04802
                  CHANNELS 6 Xposition Yposition Zposition Zrotation Xrotation Yrotation
                  JOINT Bip01_R_UpperArm
                  {
                    OFFSET 19.0492 0 0
                    CHANNELS 6 Xposition Yposition Zposition Zrotation Xrotation Yrotation
                    JOINT Bip01_R_Forearm
                    {
                      OFFSET 10.3706 0 0
                      CHANNELS 6 Xposition Yposition Zposition Zrotation Xrotation Yrotation
                      JOINT Bip01_R_Hand
                      {
                        OFFSET 22.8632 0 0
                        CHANNELS 6 Xposition Yposition Zposition Zrotation Xrotation Yrotation
                        JOINT Bip01_R_Finger0
                        {
                          OFFSET 6.48259 0.103651 0.504496
                          CHANNELS 6 Xposition Yposition Zposition Zrotation Xrotation Yrotation
                          JOINT Bip01_R_Finger01
                          {
                            OFFSET 3.66847 0 0
                            CHANNELS 6 Xposition Yposition Zposition Zrotation Xrotation Yrotation
                            End Site
                            {
                              OFFSET 0 0 0
                            }
                          }
                        }
                      }
                    }
                  }
                }
                JOINT Bip01_L_Clavicle
                {
                  OFFSET -3.21661 -4.89641 9.04797
                  CHANNELS 6 Xposition Yposition Zposition Zrotation Xrotation Yrotation
                  JOINT Bip01_L_UpperArm
                  {
                    OFFSET 19.0492 0 0
                    CHANNELS 6 Xposition Yposition Zposition Zrotation Xrotation Yrotation
                    JOINT Bip01_L_Forearm
                    {
                      OFFSET 10.3706 0 0
                      CHANNELS 6 Xposition Yposition Zposition Zrotation Xrotation Yrotation
                      JOINT Bip01_L_Hand
                      {
                        OFFSET 22.8631 0 0
                        CHANNELS 6 Xposition Yposition Zposition Zrotation Xrotation Yrotation
                        JOINT Bip01_L_Finger0
                        {
                          OFFSET 6.48257 0.103655 -0.504492
                          CHANNELS 6 Xposition Yposition Zposition Zrotation Xrotation Yrotation
                          JOINT Bip01_L_Finger01
                          {
                            OFFSET 3.66844 0 0
                            CHANNELS 6 Xposition Yposition Zposition Zrotation Xrotation Yrotation
                            End Site
                            {
                              OFFSET 0 0 0
                            }
                          }
                        }
                      }
                    }
                  }
                }
                JOINT Bip01_Neck1
                {
                  OFFSET 7.52459 -0.00656509 0
                  CHANNELS 6 Xposition Yposition Zposition Zrotation Xrotation Yrotation
                  JOINT Bip01_Neck2
                  {
                    OFFSET 8.4783 -0.00588226 0
                    CHANNELS 6 Xposition Yposition Zposition Zrotation Xrotation Yrotation
                    JOINT Bip01_Head
                    {
                      OFFSET 8.41606 0 0
                      CHANNELS 6 Xposition Yposition Zposition Zrotation Xrotation Yrotation
                      JOINT EyesBlue
                      {
                        OFFSET 0 0 0
                        CHANNELS 6 Xposition Yposition Zposition Zrotation Xrotation Yrotation
                        JOINT EyesBlue_2
                        {
                          OFFSET 0 -0.500007 0
                          CHANNELS 6 Xposition Yposition Zposition Zrotation Xrotation Yrotation
                          End Site
                          {
                            OFFSET 0 0 0
                          }
                        }
                      }
                      JOINT Bip01_Head2_Eyeleds
                      {
                        OFFSET 6.52751 7.61746 2.2e-005
                        CHANNELS 6 Xposition Yposition Zposition Zrotation Xrotation Yrotation
                        End Site
                        {
                          OFFSET 0 0 0
                        }
                      }
                      JOINT Bip01_Head_Muzzle
                      {
                        OFFSET 2.88628 13.9448 3.88994
                        CHANNELS 6 Xposition Yposition Zposition Zrotation Xrotation Yrotation
                        End Site
                        {
                          OFFSET 0 0 0
                        }
                      }
                      JOINT Bip01_Head1_Jaw
                      {
                        OFFSET 0.271065 1.32405 0
                        CHANNELS 6 Xposition Yposition Zposition Zrotation Xrotation Yrotation
                        JOINT _Bip01_Head11_TungeControler
                        {
                          OFFSET 4.61616 5.82872 0
                          CHANNELS 6 Xposition Yposition Zposition Zrotation Xrotation Yrotation
                          JOINT _Bip01_Ponytail3_tunge
                          {
                            OFFSET 5.17785 2.98805 0
                            CHANNELS 6 Xposition Yposition Zposition Zrotation Xrotation Yrotation
                            JOINT Bip01_Ponytail31
                            {
                              OFFSET 5.57569 0 0
                              CHANNELS 6 Xposition Yposition Zposition Zrotation Xrotation Yrotation
                              JOINT Bip01_Ponytail32
                              {
                                OFFSET 2.93165 0 0
                                CHANNELS 6 Xposition Yposition Zposition Zrotation Xrotation Yrotation
                                JOINT Bip01_Ponytail3Nub
                                {
                                  OFFSET 3.30155 0 0
                                  CHANNELS 6 Xposition Yposition Zposition Zrotation Xrotation Yrotation
                                  End Site
                                  {
                                    OFFSET 0 0 0
                                  }
                                }
                              }
                            }
                          }
                        }
                        JOINT Bip01_Head_JawNub
                        {
                          OFFSET 15.5776 -0.000389099 0
                          CHANNELS 6 Xposition Yposition Zposition Zrotation Xrotation Yrotation
                          End Site
                          {
                            OFFSET 0 0 0
                          }
                        }
                      }
                      JOINT Bip01_Ponytail2
                      {
                        OFFSET 9.40334 1.03973 -6.51764
                        CHANNELS 6 Xposition Yposition Zposition Zrotation Xrotation Yrotation
                        JOINT Bip01_Ponytail21
                        {
                          OFFSET 2.77018 -0.00640106 1.33514e-005
                          CHANNELS 6 Xposition Yposition Zposition Zrotation Xrotation Yrotation
                          End Site
                          {
                            OFFSET 0 0 0
                          }
                        }
                      }
                      JOINT Bip01_Ponytail1
                      {
                        OFFSET 9.40368 1.03969 6.51768
                        CHANNELS 6 Xposition Yposition Zposition Zrotation Xrotation Yrotation
                        JOINT Bip01_Ponytail11
                        {
                          OFFSET 2.77018 -0.00640487 0
                          CHANNELS 6 Xposition Yposition Zposition Zrotation Xrotation Yrotation
                          End Site
                          {
                            OFFSET 0 0 0
                          }
                        }
                      }
                    }
                  }
                }
              }
            }
          }
        }
      }
    }
  }
}
MOTION
Frames:	4
Frame Time:	0.0333333
0 0 0.240689 -0 -90 -0 1.0003 -28.7007 47.1504 89.8063 -1.99163 84.459 0 0 0 -90.0005 0.000428193 -78.4998 -6.34539 -3.85964 -1.29103 145.009 -6.66275 -2.09958 10.3821 -0.008041 4.9e-005 -7.66482 0.00537223 6.50131 10.3832 -0.008117 0.000128 -1.11741 0.00669618 6.00028 10.3867 -0.007339 0.000117 25.2053 0.036837 9.1573 10.3865 -0.007453 -0.000469 23.7244 4.08801 3.7289 1.1e-005 -1.1e-005 -8.75617 -84.0245 9.93163 -173.745 19.7638 -1e-006 2.66453e-015 -64.9557 0.000710002 0.0032 18.6534 -3e-006 5.32907e-015 -34.2483 3.98958 3.89634 5.09143 13.9567 8.37643e-007 111.545 1.08238 -4.88282 4.288 1.42109e-014 1.77636e-015 68.7863 0.00247197 0.000464363 3.85799 -1.5099e-014 -3.55271e-015 -40.789 0.0013066 0.00284998 -1.1e-005 7e-006 8.75617 -126.956 10.715 -175.593 19.7638 2e-006 3.9968e-015 -79.1076 0.000277999 0.002923 18.6534 3e-006 0 -12.5753 -6.89384 -1.66337 5.09143 13.9567 -1.50217e-006 100.039 -0.90887 4.91601 4.288 -5.68434e-014 -1e-006 51.4994 0.00078019 0.000281723 3.85799 3.55271e-015 -1.77636e-015 -45.0003 0.000108466 0.000237769 8.96494 -0.006324 1.824 2.54272 -0.1321 -2.99556 8.04394 -0.006286 9.8e-005 2.47646 -0.353859 -7.99181 8.04373 -0.006286 -1.99914e-005 0.981952 0.193331 -4.49501 8.04393 -0.008224 0.00013 2.65447 -0.720018 -5.45121 10.6688 1.06807 4.40655e-005 -10.4616 -0.408672 4.44764 -2.73925 -4.66758 -9.322 -127.913 -83.3219 170.834 19.0492 2.84217e-014 -3e-006 89.0877 -5.60168 -112.448 10.3706 -1.06581e-014 1.77636e-015 -52.8455 0.000259351 0.000773143 22.8631 -7.10543e-015 2.22045e-015 -16.9356 5.1116 2.14031 6.48256 0.103652 0.504496 -87.0263 2.11107 -15.3561 3.66843 1.78213e-012 2e-006 40.1089 0.00208864 0.00102602 -4.14235 -4.79652 8.7189 143.746 83.8995 -78.1355 19.0492 4.26326e-014 -3e-006 76.2905 -7.99857 89.2646 10.3706 7.10543e-015 8.88179e-016 -104.672 -0.00033397 0.00253215 22.8631 0 8.88179e-016 20.234 -21.2168 -13.2807 6.48256 0.103653 -0.504498 55.2479 11.1638 -10.822 3.66843 1.77636e-014 8.88179e-016 25.6085 9.729e-006 -7.1437e-006 7.52728 -0.006649 -0.000330001 9.7472 2.81443 10.1573 8.47683 -0.006462 0.000192002 15.3847 -1.64916 -4.81797 8.41604 3e-006 1.5421e-013 -92.0973 -0.599658 -2.57738 -3e-006 5e-006 -3e-006 -23.1098 1.37701e-015 90 6.96541e-009 -0.499996 -1.13714e-005 -69.1103 90 159.11 0 0 0 -113.549 -1.52588e-005 -180 2.8863 13.9448 3.88993 -22.989 1.37021e-015 90 0 0 0 -85.3358 -7.01671e-015 -180 0 0 0 -120.289 -2.52923e-006 -1.79237e-005 0 0 0 133.74 -2.61542e-005 3.73061e-006 0 0 0 1.83152 -1.29848e-006 -1.84577e-007 0 0 0 -17.65 4.55966e-006 2.14384e-006 0 0 0 -26.1943 8.11893e-007 9.61484e-007 15.5776 -0.000389 -7.00002e-006 -3.18055e-015 -3.10601e-016 9.93923e-017 9.40381 1.03965 -6.51623 -5.81608 -20.0448 20.1773 2.77011 -0.006023 0.002111 2.27055 -18.4985 -0.511609 9.40416 1.03961 6.51626 -5.81622 20.0448 -20.1772 2.77011 -0.006046 -0.002105 2.2711 18.5016 0.513581 
0 0 0.240689 -0 -90 -0 0.893031 -28.7007 47.5871 89.8584 -1.63837 85.6774 0 0 0 -89.9999 -0.000110588 -79.7933 -6.37235 -3.85964 -1.14731 143.695 -6.07043 -3.2799 10.3821 -0.008041 4.9e-005 -8.67071 -0.112118 4.60099 10.3832 -0.008117 0.000128 1.71007 0.417417 4.57095 10.3867 -0.007339 0.000117 27.2417 -0.238325 8.92557 10.3865 -0.007453 -0.000469 25.3144 2.77736 3.89185 1.1e-005 -1.1e-005 -8.75617 -88.2997 8.64073 -173.749 19.7638 -1e-006 8.88178e-016 -71.5643 0.000513336 0.00320167 18.6534 -3e-006 1.77636e-015 -31.6782 3.52631 4.26828 5.09143 13.9567 8.83638e-007 108.925 1.28257 -4.84309 4.288 -1.42109e-014 3.55271e-015 64.3124 0.00243084 0.00065592 3.85799 -1.42109e-014 0 -38.4011 0.00142219 0.00279149 -1.1e-005 7e-006 8.75617 -126.352 10.2191 -176.929 19.7638 2e-006 3.55271e-015 -79.3225 0.000272981 0.0029229 18.6534 3e-006 4.44089e-016 -12.8715 -7.17494 -1.50939 5.09143 13.9567 -1.51466e-006 100.305 -0.91328 4.91075 4.288 -4.26326e-014 -1e-006 51.6887 0.000779054 0.000278915 3.85799 -9.76996e-015 -5.32907e-015 -44.6069 0.000111422 0.000238589 9.00317 -0.006324 1.62095 2.54317 -0.120769 -2.74055 8.04394 -0.006286 9.8e-005 1.76925 -0.22393 -7.01935 8.04373 -0.006286 -1.99996e-005 0.687572 0.222964 -3.94603 8.04393 -0.008224 0.000129999 2.29498 -0.619738 -4.78753 10.6688 1.06807 4.40686e-005 -10.4634 -0.302267 3.602 -2.87921 -4.68459 -9.27082 -133.614 -83.9095 162.758 19.0492 2.13163e-014 -3e-006 86.9847 -6.30223 -111.289 10.3706 3.55271e-015 -8.88179e-016 -54.4546 0.000246338 0.000774329 22.8631 -8.88179e-015 1.02141e-014 -17.1593 6.43557 2.38641 6.48256 0.103652 0.504496 -85.4257 1.67017 -15.4088 3.66843 2.78999e-012 2e-006 36.4902 0.00199621 0.00117359 -4.01188 -4.77938 8.78864 150.161 84.4668 -86.9571 19.0492 5.15144e-014 -3e-006 78.4948 -11.4268 92.5539 10.3706 1.95399e-014 0 -99.9349 -0.000232186 0.00253274 22.8631 -1.06581e-014 -2.66454e-015 21.9403 -19.3742 -11.1823 6.48256 0.103653 -0.504498 49.2042 12.2305 -9.59555 3.66843 -1.77636e-014 -1.06581e-014 26.4048 9.13469e-006 -7.1606e-006 7.52728 -0.006649 -0.000330001 9.73617 2.80856 10.1362 8.47683 -0.006462 0.000192002 15.4411 -1.65995 -4.83801 8.41604 3e-006 1.53211e-013 -90.7606 -0.397771 -2.59392 -3e-006 5e-006 -3e-006 -23.1098 1.37701e-015 90 6.85235e-009 -0.499996 -1.13721e-005 -69.3762 90 159.376 0 0 0 -113.249 -1.52588e-005 -180 2.90424 13.9397 3.88993 -22.989 1.37021e-015 90 0 0 0 -85.2733 7.01671e-015 -180 0 0 0 -120.152 -2.62608e-006 -1.79629e-005 0 0 0 133.652 -2.58634e-005 3.64289e-006 0 0 0 1.75652 -1.12554e-006 -1.66279e-007 0 0 0 -17.8 4.10494e-006 2.0016e-006 0 0 0 -26.1943 7.58534e-007 9.39903e-007 15.5776 -0.000389 -7.00002e-006 3.18055e-015 -7.45443e-017 -2.48481e-017 9.40381 1.03965 -6.51623 -5.83906 -20.0691 20.1103 2.77011 -0.006023 0.002111 2.27055 -18.4985 -0.511609 9.40416 1.03961 6.51626 -5.8392 20.0691 -20.1102 2.77011 -0.006046 -0.002105 2.2711 18.5016 0.513581 
0 0 0.240689 -0 -90 -0 0.778141 -28.7007 48.0451 89.9041 -1.27368 86.9109 0 0 0 -89.9997 -0.000284617 -81.081 -6.39611 -3.85964 -1.00377 142.266 -5.44643 -4.59299 10.3821 -0.008041 4.9e-005 -9.78876 -0.20513 2.54409 10.3832 -0.008117 0.000128 4.8524 0.795364 3.05151 10.3867 -0.007339 0.000117 29.49 -0.563451 8.84953 10.3865 -0.007453 -0.000469 27.0726 1.21073 4.22932 1.1e-005 -1.1e-005 -8.75617 -92.4422 7.38413 -173.985 19.7638 -1e-006 -2.66453e-015 -78.4941 0.000315866 0.00320102 18.6534 -3e-006 -7.10543e-015 -29.4687 2.95609 4.63521 5.09143 13.9567 8.76471e-007 103.304 1.7039 -4.72216 4.288 -7.10543e-015 0 54.7071 0.00228776 0.00105214 3.85799 7.10543e-015 3.55271e-015 -33.314 0.00166373 0.00265428 -1.1e-005 7e-006 8.75617 -125.837 9.6595 -178.167 19.7638 2e-006 4.44089e-016 -79.1963 0.000275989 0.00292295 18.6534 3e-006 3.9968e-015 -14.0766 -7.27401 -1.48017 5.09143 13.9567 -1.52788e-006 100.935 -0.924964 4.89734 4.288 -4.79616e-014 -1e-006 52.135 0.000779014 0.000272507 3.85799 0 -1.77636e-015 -43.678 0.000116726 0.000238417 9.03697 -0.006324 1.41819 2.54355 -0.109381 -2.48432 8.04394 -0.006286 9.8e-005 1.04928 -0.117344 -6.05142 8.04373 -0.006286 -2.00096e-005 0.382203 0.247596 -3.40044 8.04393 -0.008224 0.000129999 1.93643 -0.523222 -4.12728 10.6688 1.06807 4.40727e-005 -10.4644 -0.189498 2.70621 -3.02832 -4.70266 -9.21368 -140.994 -84.4549 152.997 19.0492 1.95399e-014 -3e-006 85.1944 -6.71416 -109.961 10.3706 -7.10543e-015 -1.77636e-015 -55.6573 0.000237193 0.000774988 22.8631 2.66454e-015 -1.77636e-015 -17.3988 7.80356 2.55523 6.48256 0.103652 0.504496 -83.8461 1.23396 -15.4488 3.66843 3.13971e-012 2e-006 32.8626 0.00190969 0.00130337 -3.87105 -4.76085 8.86129 158.542 84.9775 -97.9677 19.0492 4.26326e-014 -3e-006 81.3595 -14.8129 96.26 10.3706 -8.88179e-015 8.4377e-015 -95.2091 -0.000105115 0.00253627 22.8631 2.13163e-014 8.88179e-016 24.0742 -17.4455 -8.9819 6.48256 0.103653 -0.504498 43.5989 13.0956 -8.36579 3.66843 -4.26326e-014 8.88179e-016 27.1916 8.85619e-006 -7.13081e-006 7.52728 -0.006649 -0.00033 9.72457 2.80229 10.1135 8.47683 -0.006462 0.000192002 15.5009 -1.67142 -4.85919 8.41604 3e-006 1.48992e-013 -89.4087 -0.27006 -2.5957 -3e-006 5e-006 -3e-006 -23.1098 1.37701e-015 90 6.74875e-009 -0.499996 -1.1373e-005 -69.7165 90 159.717 0 0 0 -112.949 -1.52588e-005 -180 2.92219 13.9345 3.88993 -22.989 1.37021e-015 90 0 0 0 -85.2108 7.01671e-015 -180 0 0 0 -120.014 -2.72348e-006 -1.80077e-005 0 0 0 133.565 -2.55146e-005 3.55237e-006 0 0 0 1.6815 -8.89769e-007 -1.47128e-007 0 0 0 -17.9501 3.53725e-006 1.8188e-006 0 0 0 -26.1943 7.04459e-007 9.16856e-007 15.5776 -0.000389 -7.00002e-006 -3.18055e-015 4.34841e-017 -9.93923e-017 9.40381 1.03965 -6.51623 -5.89464 -20.1277 19.9484 2.77011 -0.006023 0.002111 2.27055 -18.4985 -0.511609 9.40416 1.03961 6.51626 -5.89474 20.1277 -19.9484 2.77011 -0.006046 -0.002105 2.2711 18.5016 0.513581 
0 0 0.240689 -0 -90 -0 0.654584 -28.7007 48.505 89.9418 -0.931578 88.1696 0 0 0 -90 -6.67815e-005 -82.3902 -6.41712 -3.85964 -0.857361 140.764 -4.76122 -5.97659 10.3821 -0.008041 4.9e-005 -10.982 -0.262815 0.377437 10.3832 -0.008117 0.000128 8.20605 1.11338 1.45489 10.3867 -0.007339 0.000117 31.8793 -0.917283 8.85942 10.3865 -0.007453 -0.000469 28.9521 -0.499933 4.69207 1.1e-005 -1.1e-005 -8.75617 -96.6516 6.12999 -174.394 19.7638 -1e-006 -3.55271e-015 -85.456 0.000123217 0.00319999 18.6534 -3e-006 -8.88178e-016 -27.1398 2.3809 4.92818 5.09143 13.9567 8.65519e-007 96.0497 2.22718 -4.51124 4.288 0 0 42.332 0.00200905 0.00151766 3.85799 0 5.32907e-015 -26.7177 0.00195771 0.00244581 -1.1e-005 7e-006 8.75617 -125.328 9.02066 -179.335 19.7638 2e-006 4.44089e-016 -78.7354 0.000287934 0.00292293 18.6534 3e-006 1.33227e-015 -16.0445 -7.20919 -1.54909 5.09143 13.9567 -1.54386e-006 101.922 -0.943525 4.87591 4.288 -4.08562e-014 -1e-006 52.8339 0.000780042 0.000262539 3.85799 -4.88498e-015 3.55271e-015 -42.2236 0.000124261 0.000237058 9.06686 -0.006324 1.21138 2.54402 -0.0978201 -2.2241 8.04394 -0.006286 9.8e-005 0.317018 -0.0341559 -5.06526 8.04373 -0.006286 -2.00065e-005 0.0739851 0.266449 -2.84568 8.04393 -0.008224 0.000129999 1.57012 -0.42939 -3.45513 10.6688 1.06807 4.40786e-005 -10.4645 -0.0685127 1.74565 -3.18739 -4.72188 -9.14977 -150.518 -84.9118 141.059 19.0492 2.30926e-014 -3e-006 83.6176 -6.96899 -108.474 10.3706 7.10543e-015 4.44089e-015 -56.6237 0.000229754 0.000775804 22.8631 -7.99361e-015 3.55271e-015 -17.6342 9.22012 2.65466 6.48256 0.103652 0.504496 -82.2163 0.78265 -15.4775 3.66843 -5.40102e-012 2e-006 29.1911 0.00203468 0.00130491 -3.71869 -4.74083 8.93685 169.364 85.373 -111.413 19.0492 5.68434e-014 -3e-006 84.7551 -18.1133 100.067 10.3706 8.88179e-015 3.9968e-015 -90.2899 2.99452e-006 0.00253572 22.8631 1.42109e-014 3.55272e-015 26.0237 -15.4266 -6.8795 6.48256 0.103653 -0.504498 37.7623 13.8621 -7.00421 3.66843 0 1.77636e-015 27.9915 8.65877e-006 -7.04057e-006 7.52728 -0.006649 -0.00033 9.71246 2.79564 10.0892 8.47683 -0.006462 0.000192002 15.565 -1.68378 -4.88192 8.41604 3e-006 1.47882e-013 -88.0425 -0.195504 -2.58548 -3e-006 5e-006 -3e-006 -23.1098 1.37701e-015 90 6.63599e-009 -0.499996 -1.13741e-005 -76.4537 90 166.454 0 0 0 -112.649 -3.05176e-005 -180 2.94013 13.9294 3.88993 -22.989 1.37021e-015 90 0 0 0 -85.1482 -7.01671e-015 -180 0 0 0 -119.877 -2.82919e-006 -1.80517e-005 0 0 0 133.477 -2.51985e-005 3.45621e-006 0 0 0 1.60648 -6.92569e-007 -1.29829e-007 0 0 0 -18.1001 3.03095e-006 1.65336e-006 0 0 0 -26.1943 6.52802e-007 8.94956e-007 15.5776 -0.000389 -7.00002e-006 4.84926e-035 -5.59082e-017 4.96962e-017 9.40381 1.03965 -6.51623 -5.96801 -20.2043 19.7357 2.77011 -0.006023 0.002111 2.27055 -18.4985 -0.511609 9.40416 1.03961 6.51626 -5.96814 20.2043 -19.7355 2.77011 -0.006046 -0.002105 2.2711 18.5016 0.513581 
